<svg xmlns="http://www.w3.org/2000/svg" viewBox="0 0 1517 1517"><path fill="#2a160d" fill-rule="evenodd" d="M750.5 1459.0C746.7 1457.6 745.4 1456.7 742.5 1453.9C739.3 1450.8 736.5 1447.2 727.5 1434.2C725.6 1431.5 722.9 1427.7 721.5 1425.8C720.1 1423.8 717.0 1419.3 714.5 1415.8C712.0 1412.2 708.9 1407.7 707.5 1405.8C701.4 1397.3 698.5 1393.1 689.5 1380.2C687.6 1377.5 684.9 1373.7 683.5 1371.8C682.1 1369.8 679.4 1366.0 677.5 1363.2C675.6 1360.5 672.9 1356.7 671.5 1354.8C670.1 1352.8 667.4 1349.0 665.5 1346.2C663.6 1343.5 660.9 1339.7 659.5 1337.8C658.1 1335.8 655.4 1332.0 653.5 1329.2C647.2 1320.2 643.3 1314.7 640.5 1310.8C637.7 1306.8 633.8 1301.3 627.5 1292.2C625.6 1289.5 622.9 1285.7 621.5 1283.8C620.1 1281.8 617.4 1278.0 615.5 1275.2C606.5 1262.4 603.7 1258.4 597.5 1249.8C596.1 1247.8 593.4 1244.0 591.5 1241.2C589.6 1238.5 586.9 1234.7 585.5 1232.8C584.1 1230.8 581.4 1227.0 579.5 1224.2C577.6 1221.5 574.4 1217.0 572.5 1214.2C568.9 1209.1 564.5 1202.8 558.5 1194.2C556.6 1191.5 553.9 1187.7 552.5 1185.8C551.1 1183.8 548.4 1180.0 546.5 1177.2C544.6 1174.5 541.9 1170.7 540.5 1168.8C539.1 1166.8 536.4 1163.0 534.5 1160.2C532.6 1157.5 529.9 1153.7 528.5 1151.8C527.1 1149.8 524.4 1146.0 522.5 1143.2C520.6 1140.5 517.9 1136.7 516.5 1134.8C515.1 1132.8 512.4 1129.0 510.5 1126.2C508.6 1123.5 505.9 1119.7 504.5 1117.8C503.1 1115.8 500.0 1111.3 497.5 1107.8C495.0 1104.2 491.9 1099.7 490.5 1097.8C489.1 1095.8 486.4 1092.0 484.5 1089.2C482.6 1086.5 479.9 1082.7 478.5 1080.8C472.3 1072.1 469.5 1068.1 460.5 1055.2C458.6 1052.5 455.9 1048.7 454.5 1046.8C453.1 1044.8 450.4 1041.0 448.5 1038.2C446.6 1035.5 443.9 1031.7 442.5 1029.8C441.1 1027.8 438.4 1024.0 436.5 1021.2C434.6 1018.5 431.4 1014.0 429.5 1011.2C427.6 1008.5 424.4 1004.0 422.5 1001.2C420.6 998.5 417.9 994.7 416.5 992.8C415.1 990.8 412.4 987.0 410.5 984.2C408.6 981.5 405.9 977.7 404.5 975.8C403.1 973.8 400.4 970.0 398.5 967.2C396.6 964.5 393.9 960.7 392.5 958.8C386.3 950.1 383.5 946.1 374.5 933.2C372.6 930.5 369.9 926.7 368.5 924.8C367.1 922.8 364.0 918.3 361.5 914.8C359.0 911.2 355.9 906.7 354.5 904.8C353.1 902.8 350.4 899.0 348.5 896.2C346.6 893.5 343.9 889.7 342.5 887.8C341.1 885.8 338.4 882.0 336.5 879.2C334.6 876.5 331.9 872.7 330.5 870.8C329.1 868.8 326.4 865.0 324.5 862.2C322.6 859.5 319.9 855.7 318.5 853.8C317.1 851.8 314.4 848.0 312.5 845.2C307.0 837.4 306.0 835.9 303.9 833.1C301.2 829.6 291.4 811.2 287.3 802.0C286.9 801.0 286.2 799.7 285.8 799.0C284.4 796.5 278.6 783.3 276.1 777.1C274.7 773.7 273.1 769.8 272.0 767.0C271.5 765.8 270.6 763.4 270.0 761.8C269.4 760.1 268.2 757.0 267.4 754.8C264.3 746.5 257.0 724.0 255.6 718.2C255.3 717.1 254.7 715.0 254.2 713.5C253.8 712.0 253.2 709.9 252.9 708.9C252.7 707.8 252.3 706.1 252.0 705.0C251.7 703.9 251.3 702.0 251.0 700.9C250.7 699.7 250.2 697.9 249.9 696.8C249.7 695.6 249.2 693.7 249.0 692.5C248.8 691.3 248.3 689.2 248.0 688.0C247.7 686.8 247.2 684.7 247.0 683.4C246.7 682.1 246.3 679.8 246.0 678.4C245.7 676.9 245.2 674.6 245.0 673.2C244.7 671.9 244.2 669.5 244.0 667.9C243.7 666.3 243.3 663.6 243.0 661.9C242.7 660.2 242.2 657.2 242.0 655.2C241.7 653.3 241.3 650.2 241.0 648.2C235.1 607.7 234.8 556.4 240.0 514.1C240.3 511.9 240.7 508.3 241.0 506.1C241.2 504.0 241.7 500.8 242.0 499.1C242.7 494.7 243.4 490.5 244.0 487.1C244.2 485.5 244.7 483.1 245.0 481.8C245.8 477.8 246.4 474.4 247.0 471.8C247.2 470.4 247.7 468.2 248.0 467.0C248.3 465.8 248.8 463.7 249.0 462.5C249.4 460.4 249.9 458.2 251.0 453.9C251.3 452.8 251.7 451.0 252.0 449.9C252.3 448.7 252.8 447.0 253.0 446.0C253.2 445.0 253.7 443.4 253.9 442.2C254.2 441.1 254.8 439.0 255.2 437.5C255.7 436.0 256.5 433.3 257.0 431.5C259.0 424.5 269.0 394.9 271.1 389.8C271.7 388.4 272.5 386.2 273.1 384.9C275.7 378.1 276.4 376.5 280.5 367.0C282.8 361.7 298.7 329.4 301.0 325.5C302.0 323.7 304.6 319.3 306.6 315.8C313.0 304.8 325.3 285.7 332.6 275.5C335.2 271.8 345.5 258.1 346.1 257.4C346.5 257.0 347.4 255.9 348.1 254.9C348.9 253.9 349.8 252.8 350.1 252.4C350.5 252.1 351.4 250.9 352.1 249.9C352.9 248.9 353.8 247.8 354.1 247.4C354.5 247.1 355.4 245.9 356.2 244.8C357.0 243.8 358.3 242.2 359.2 241.3C360.0 240.5 361.4 238.9 362.2 237.8C363.0 236.8 364.6 235.0 365.7 233.8C366.8 232.7 368.4 230.9 369.2 229.8C370.0 228.7 373.2 225.3 376.2 222.3C379.3 219.2 382.4 215.9 383.2 214.8C385.1 212.3 390.3 207.1 392.8 205.2C393.9 204.4 397.4 201.0 400.8 197.7C404.1 194.4 407.7 191.0 408.8 190.2C409.9 189.4 411.7 187.8 412.8 186.7C414.0 185.6 415.8 184.0 416.8 183.2C417.9 182.4 419.2 181.3 419.9 180.7C420.5 180.1 421.8 178.9 422.9 178.2C423.9 177.4 425.2 176.3 425.9 175.7C426.5 175.1 427.8 173.9 428.9 173.2C429.9 172.4 431.1 171.5 431.4 171.1C431.8 170.8 432.9 169.9 433.9 169.1C434.9 168.4 436.0 167.5 436.4 167.1C437.1 166.5 450.9 156.1 454.5 153.6C458.9 150.4 477.3 138.1 480.8 136.0C495.5 126.9 496.6 126.3 511.5 118.2C522.5 112.3 539.2 104.1 549.9 99.6C558.6 95.8 560.4 95.1 562.8 94.1C564.1 93.5 566.6 92.6 568.2 92.0C569.9 91.4 573.0 90.2 575.2 89.4C580.3 87.5 608.2 78.2 612.5 77.0C614.3 76.5 616.6 75.9 617.8 75.6C618.9 75.3 621.0 74.7 622.5 74.2C624.0 73.8 626.1 73.2 627.1 72.9C629.1 72.5 631.6 71.9 634.9 71.0C639.1 69.9 641.4 69.4 643.6 69.0C644.9 68.7 647.1 68.3 648.4 68.0C649.7 67.7 651.9 67.3 653.4 67.0C654.8 66.7 657.2 66.3 658.6 66.0C660.1 65.7 662.5 65.2 664.0 65.0C665.5 64.8 668.0 64.3 669.5 64.0C671.0 63.7 673.8 63.2 675.6 63.0C677.5 62.7 680.5 62.3 682.4 62.0C694.5 60.2 702.4 59.4 718.2 57.9C726.2 57.2 789.8 57.2 797.8 57.9C809.5 59.0 820.8 60.2 826.4 61.0C828.4 61.3 831.6 61.7 833.5 62.0C835.4 62.3 838.5 62.7 840.4 63.0C842.2 63.2 845.0 63.7 846.5 64.0C848.0 64.3 850.5 64.8 852.0 65.0C854.6 65.4 855.7 65.6 862.5 67.0C863.9 67.3 866.1 67.7 867.4 68.0C868.7 68.2 870.7 68.7 871.9 69.0C873.0 69.3 875.0 69.7 876.1 70.0C877.3 70.3 879.3 70.8 880.5 71.0C883.9 71.7 886.5 72.3 889.5 73.2C891.0 73.7 893.1 74.3 894.2 74.6C904.7 77.2 935.8 87.2 945.0 91.0C947.8 92.1 951.7 93.7 955.1 95.1C958.3 96.3 963.3 98.5 969.2 101.1C976.0 104.1 1005.7 118.8 1009.6 121.0C1011.5 122.1 1014.6 123.9 1016.6 125.1C1031.1 133.4 1040.0 139.0 1056.3 150.1C1061.9 154.0 1079.1 166.7 1080.6 168.1C1080.9 168.5 1082.1 169.4 1083.1 170.1C1084.1 170.9 1085.2 171.8 1085.6 172.1C1085.9 172.5 1087.1 173.4 1088.1 174.2C1089.2 174.9 1090.5 176.1 1091.1 176.7C1091.8 177.3 1093.1 178.4 1094.2 179.2C1095.2 180.0 1096.8 181.3 1097.7 182.2C1098.5 183.0 1100.1 184.4 1101.2 185.2C1102.3 186.0 1104.3 187.8 1105.7 189.2C1107.1 190.6 1109.2 192.4 1110.2 193.2C1112.8 195.1 1141.9 224.2 1143.8 226.8C1144.6 227.8 1146.4 229.9 1147.8 231.3C1149.2 232.7 1151.0 234.7 1151.8 235.8C1152.6 236.9 1154.0 238.5 1154.8 239.3C1155.7 240.2 1157.0 241.8 1157.8 242.8C1158.6 243.9 1159.5 245.1 1159.9 245.4C1160.2 245.8 1161.1 246.9 1161.9 247.9C1162.6 248.9 1163.7 250.2 1164.3 250.8C1168.6 255.2 1192.8 289.0 1199.9 300.6C1201.1 302.5 1202.9 305.5 1204.1 307.4C1205.2 309.2 1207.0 312.3 1208.1 314.1C1209.1 316.0 1210.9 319.1 1212.1 321.1C1213.8 324.1 1216.7 329.5 1220.3 336.2C1220.6 336.8 1221.2 337.9 1221.7 338.8C1222.7 340.6 1225.8 347.0 1231.0 358.0C1235.7 367.9 1237.1 371.3 1240.9 380.9C1242.7 385.4 1243.9 388.3 1244.9 390.8C1248.4 399.2 1258.8 431.3 1261.4 441.8C1261.7 442.9 1262.3 445.0 1262.8 446.5C1263.2 448.0 1263.8 450.0 1264.0 451.0C1264.3 452.0 1264.7 453.8 1265.0 455.0C1265.3 456.2 1265.8 458.3 1266.0 459.5C1266.2 460.7 1266.7 462.8 1267.0 464.0C1267.5 466.2 1267.9 467.8 1269.0 473.4C1269.3 474.8 1269.7 477.1 1270.0 478.4C1270.9 483.1 1271.6 486.3 1272.0 489.1C1272.3 490.7 1272.7 493.4 1273.0 495.1C1273.3 496.8 1273.8 499.8 1274.0 501.8C1274.5 505.0 1274.8 507.0 1276.0 517.1C1278.1 533.5 1279.5 558.8 1279.5 577.5C1279.5 596.2 1278.1 621.5 1276.0 637.9C1274.8 648.0 1274.5 650.0 1274.0 653.2C1273.8 655.2 1273.3 658.2 1273.0 659.9C1272.7 661.6 1272.3 664.3 1272.0 665.9C1271.8 667.5 1271.3 669.9 1271.0 671.2C1270.2 675.4 1269.6 678.6 1269.0 681.5C1268.0 686.7 1267.6 688.7 1267.0 690.9C1266.7 692.0 1266.3 694.0 1266.0 695.1C1265.7 696.3 1265.3 698.3 1265.0 699.5C1264.8 700.7 1264.2 703.0 1263.8 704.5C1263.0 707.1 1262.7 708.0 1261.4 713.2C1259.0 723.2 1249.3 753.1 1246.0 761.1C1245.0 763.5 1243.8 766.5 1242.1 770.9C1236.9 783.9 1232.9 792.6 1223.7 811.2C1216.7 825.2 1214.8 828.6 1209.6 836.1C1202.7 845.9 1199.2 850.9 1196.5 854.8C1193.7 858.7 1189.8 864.2 1183.5 873.2C1181.6 876.0 1178.9 879.8 1177.5 881.8C1176.1 883.7 1173.4 887.5 1171.5 890.2C1169.6 893.0 1166.4 897.5 1164.5 900.2C1162.6 903.0 1159.4 907.5 1157.5 910.2C1155.6 913.0 1152.4 917.5 1150.5 920.2C1146.9 925.4 1142.5 931.7 1136.5 940.2C1134.6 943.0 1131.9 946.8 1130.5 948.8C1129.1 950.7 1126.4 954.5 1124.5 957.2C1122.6 960.0 1119.9 963.8 1118.5 965.8C1117.1 967.7 1114.4 971.5 1112.5 974.2C1110.6 977.0 1107.4 981.5 1105.5 984.2C1103.6 987.0 1100.4 991.5 1098.5 994.2C1096.6 997.0 1093.4 1001.5 1091.5 1004.2C1089.6 1007.0 1086.4 1011.5 1084.5 1014.2C1077.6 1024.1 1074.2 1028.9 1071.5 1032.8C1068.8 1036.6 1065.4 1041.4 1058.5 1051.2C1051.6 1061.1 1048.2 1065.9 1045.5 1069.8C1042.8 1073.6 1039.4 1078.4 1032.5 1088.2C1030.6 1091.0 1027.4 1095.5 1025.5 1098.2C1023.6 1101.0 1020.4 1105.5 1018.5 1108.2C1016.6 1111.0 1013.9 1114.8 1012.5 1116.8C1011.1 1118.7 1008.0 1123.2 1005.5 1126.8C1003.0 1130.3 999.9 1134.8 998.5 1136.8C997.1 1138.7 994.4 1142.5 992.5 1145.2C986.2 1154.3 982.3 1159.8 979.5 1163.8C976.8 1167.6 973.4 1172.4 966.5 1182.2C959.6 1192.1 956.2 1196.9 953.5 1200.8C949.4 1206.5 944.5 1213.5 939.5 1220.8C937.0 1224.3 933.9 1228.8 932.5 1230.8C931.1 1232.7 928.4 1236.5 926.5 1239.2C924.6 1242.0 921.9 1245.8 920.5 1247.8C919.1 1249.7 916.0 1254.2 913.5 1257.8C911.0 1261.3 907.9 1265.8 906.5 1267.8C905.1 1269.7 902.4 1273.5 900.5 1276.2C894.2 1285.3 890.3 1290.8 887.5 1294.8C884.8 1298.6 881.4 1303.4 874.5 1313.2C872.6 1316.0 869.4 1320.5 867.5 1323.2C865.6 1326.0 862.4 1330.5 860.5 1333.2C853.6 1343.1 850.2 1347.9 847.5 1351.8C844.7 1355.7 840.8 1361.2 834.5 1370.2C832.6 1373.0 829.9 1376.8 828.5 1378.8C827.1 1380.7 824.0 1385.2 821.5 1388.8C819.0 1392.3 815.9 1396.8 814.5 1398.8C813.1 1400.7 810.4 1404.5 808.5 1407.2C806.6 1410.0 803.9 1413.8 802.5 1415.8C801.1 1417.7 798.4 1421.5 796.5 1424.2C794.6 1427.0 791.5 1431.4 789.6 1434.1C787.8 1436.7 784.8 1441.0 783.1 1443.5C775.8 1454.1 772.8 1456.8 765.9 1459.2C762.8 1460.3 753.5 1460.2 750.5 1459.0Z"/><path fill="#d1ae63" fill-rule="evenodd" d="M481.0 994.5C480.6 994.2 479.3 994.0 478.1 994.0C475.0 994.0 471.5 992.1 470.3 989.7C467.6 984.3 467.6 970.2 470.2 964.2C473.0 957.9 474.8 954.3 477.0 950.9C478.4 948.7 480.7 945.1 482.1 942.9C483.5 940.6 486.2 936.4 488.0 933.5C489.8 930.6 492.5 926.3 494.0 924.0C496.6 919.9 499.5 915.2 506.8 903.8C508.8 900.7 511.5 896.3 513.0 894.0C514.5 891.7 517.2 887.4 519.0 884.5C520.8 881.6 523.5 877.3 525.0 875.0C526.5 872.7 529.2 868.4 531.0 865.5C532.8 862.6 535.5 858.4 536.9 856.1C538.3 853.9 540.7 850.1 542.1 847.9C543.5 845.6 546.2 841.3 548.1 838.4C550.0 835.4 553.0 830.6 554.9 827.6C556.8 824.7 559.9 819.8 561.8 816.8C563.8 813.7 566.5 809.3 568.0 807.0C570.6 802.9 573.5 798.2 580.8 786.8C582.8 783.7 585.5 779.3 587.0 777.0C588.5 774.7 591.2 770.3 593.1 767.4C595.0 764.4 598.0 759.6 599.9 756.6C601.8 753.7 604.5 749.3 606.0 747.0C608.6 742.9 611.5 738.2 618.8 726.8C620.8 723.7 623.5 719.3 625.0 717.0C626.5 714.7 629.2 710.4 631.0 707.5C632.8 704.6 635.5 700.3 637.0 698.0C638.5 695.7 641.2 691.3 643.2 688.2C650.5 676.8 653.4 672.1 656.0 668.0C657.5 665.7 660.2 661.3 662.1 658.4C664.0 655.4 667.0 650.6 668.9 647.6C670.8 644.7 673.5 640.3 675.0 638.0C676.5 635.7 679.2 631.3 681.2 628.2C688.5 616.8 691.4 612.1 694.0 608.0C695.5 605.7 698.2 601.3 700.1 598.4C702.0 595.4 705.0 590.6 706.9 587.6C708.8 584.7 711.5 580.3 713.0 578.0C714.5 575.7 717.2 571.4 719.0 568.5C720.8 565.6 723.5 561.3 725.0 559.0C727.6 554.9 730.5 550.2 737.8 538.8C739.8 535.7 742.5 531.3 744.0 529.0C746.6 524.9 749.5 520.2 756.8 508.8C758.8 505.7 761.5 501.3 763.0 499.0C764.5 496.7 767.2 492.3 769.1 489.4C771.0 486.4 774.0 481.6 775.9 478.6C777.8 475.7 780.5 471.3 782.0 469.0C784.5 465.0 786.7 461.5 795.1 448.4C802.4 436.9 805.4 432.1 808.0 428.0C809.5 425.7 812.2 421.3 814.1 418.4C816.0 415.4 819.0 410.6 820.9 407.6C822.8 404.7 825.5 400.3 827.0 398.0C828.5 395.7 831.2 391.4 833.0 388.5C834.8 385.6 837.5 381.3 839.0 379.0C840.5 376.7 843.2 372.4 845.0 369.5C846.8 366.6 849.5 362.3 851.0 360.0C852.5 357.7 855.2 353.3 857.1 350.4C859.0 347.4 862.0 342.6 863.9 339.6C865.8 336.7 868.5 332.3 870.0 330.0C871.5 327.7 874.2 323.4 876.0 320.5C877.8 317.6 880.5 313.3 882.0 311.0C883.5 308.7 886.2 304.3 888.2 301.2C895.5 289.8 898.4 285.1 901.0 281.0C902.5 278.7 905.2 274.4 907.0 271.5C908.8 268.6 911.5 264.3 913.0 262.0C916.0 257.3 921.5 248.5 924.9 243.3C926.1 241.5 927.0 239.5 926.9 239.1C926.7 238.3 919.4 238.3 820.0 238.3C750.1 238.4 711.0 238.6 706.8 238.9C695.4 239.9 687.6 240.7 678.6 242.0C676.6 242.3 673.5 242.7 671.6 243.0C668.5 243.4 666.4 243.8 660.4 245.0C659.1 245.3 656.9 245.7 655.6 246.0C654.3 246.2 652.4 246.7 651.2 246.9C650.1 247.2 648.4 247.7 647.2 247.9C643.9 248.7 630.2 253.1 622.2 256.0C619.3 257.0 609.5 261.4 607.0 262.8C606.3 263.2 603.7 264.6 601.3 265.8C595.7 268.7 584.8 275.9 581.6 278.9C581.2 279.2 580.1 280.1 579.1 280.9C576.7 282.7 565.7 293.7 563.9 296.1C563.1 297.1 562.2 298.2 561.9 298.6C555.5 305.5 538.5 333.9 534.8 343.9C534.4 344.9 533.6 347.0 533.0 348.5C529.6 357.0 526.2 367.0 525.0 372.0C524.7 373.0 524.3 374.6 524.0 375.8C522.8 380.8 522.4 382.4 522.0 384.6C521.7 385.9 521.3 388.1 521.0 389.4C520.7 390.7 520.3 392.9 520.0 394.4C519.7 395.8 519.3 398.2 519.0 399.6C518.7 401.1 518.2 403.7 518.0 405.5C517.7 407.3 517.3 410.2 517.0 412.0C515.6 420.4 513.5 440.5 512.2 457.8C512.0 459.9 511.7 462.0 511.4 462.4C510.6 463.3 484.3 463.3 483.5 462.3C482.9 461.5 483.0 459.7 484.0 438.9C484.3 433.4 484.7 424.5 485.0 419.0C477.7 565.9 494.3 232.1 487.0 379.0C487.3 373.5 487.7 364.5 488.0 359.0C488.3 353.5 488.7 344.5 489.0 339.0C489.3 333.5 489.7 324.5 490.0 319.0C490.3 313.5 490.7 304.5 491.0 299.0C491.3 293.5 491.7 284.5 492.0 279.0C492.3 273.5 492.7 264.5 493.0 259.0C493.3 253.5 493.7 244.5 494.0 239.0C494.3 233.5 494.7 224.6 495.0 219.1C495.5 207.4 495.9 203.5 496.6 202.6C497.0 202.1 551.5 202.0 766.1 202.0L1035.0 202.0 L1038.1 203.6C1044.8 206.9 1046.1 209.4 1046.1 218.9C1046.1 224.8 1045.9 226.1 1045.0 228.5C1044.4 230.0 1043.6 231.9 1043.3 232.8C1042.4 235.1 1037.9 242.9 1032.9 250.6C1025.0 263.1 1016.3 276.7 1013.0 282.0C1011.5 284.3 1008.8 288.6 1007.0 291.5C1005.2 294.4 1002.5 298.7 1001.0 301.0C999.5 303.3 996.8 307.6 995.0 310.5C993.2 313.4 990.5 317.7 989.0 320.0C987.5 322.3 984.8 326.6 983.0 329.5C981.2 332.4 978.5 336.7 977.0 339.0C975.5 341.3 972.8 345.6 971.0 348.5C969.2 351.4 966.5 355.7 965.0 358.0C963.5 360.3 960.8 364.6 959.0 367.5C957.2 370.4 954.5 374.7 953.0 377.0C951.5 379.3 948.8 383.6 947.0 386.5C945.2 389.4 942.5 393.7 941.0 396.0C939.5 398.3 936.8 402.6 935.0 405.5C933.2 408.4 930.5 412.7 929.0 415.0C927.5 417.3 924.8 421.6 923.0 424.5C921.2 427.4 918.5 431.7 917.0 434.0C915.5 436.3 912.8 440.6 911.0 443.5C909.2 446.4 906.5 450.7 905.0 453.0C903.5 455.3 900.8 459.6 899.0 462.5C897.2 465.4 894.5 469.7 893.0 472.0C891.5 474.3 888.8 478.6 887.0 481.5C885.2 484.4 882.5 488.7 881.0 491.0C879.5 493.3 876.8 497.6 875.0 500.5C873.2 503.4 870.5 507.7 869.0 510.0C867.5 512.3 864.8 516.6 863.0 519.5C861.2 522.4 858.5 526.7 857.0 529.0C855.5 531.3 852.8 535.6 851.0 538.5C849.2 541.4 846.5 545.7 845.0 548.0C843.5 550.3 840.8 554.6 839.0 557.5C837.2 560.4 834.5 564.7 833.0 567.0C831.5 569.3 828.8 573.6 827.0 576.5C825.2 579.4 822.5 583.7 821.0 586.0C819.5 588.3 816.8 592.6 815.0 595.5C813.2 598.4 810.5 602.7 809.0 605.0C807.5 607.3 804.8 611.6 803.0 614.5C801.2 617.4 798.5 621.7 797.0 624.0C795.5 626.3 792.8 630.7 790.9 633.6C789.0 636.6 786.0 641.4 784.1 644.4C782.2 647.3 779.5 651.7 778.0 654.0C776.5 656.3 773.8 660.6 772.0 663.5C770.2 666.4 767.5 670.7 766.0 673.0C764.5 675.3 761.8 679.6 760.0 682.5C758.2 685.4 755.5 689.7 754.0 692.0C752.5 694.3 749.8 698.6 748.0 701.5C746.2 704.4 743.5 708.7 742.0 711.0C740.5 713.3 737.8 717.6 736.0 720.5C734.2 723.4 731.5 727.7 730.0 730.0C728.5 732.3 725.8 736.6 724.0 739.5C722.2 742.4 719.5 746.7 718.0 749.0C716.5 751.3 713.8 755.6 712.0 758.5C710.2 761.4 707.5 765.7 706.0 768.0C704.5 770.3 701.8 774.6 700.0 777.5C698.2 780.4 695.5 784.7 694.0 787.0C692.5 789.3 689.8 793.6 688.0 796.5C686.2 799.4 683.5 803.7 682.0 806.0C680.5 808.3 677.8 812.6 676.0 815.5C674.2 818.4 671.5 822.7 670.0 825.0C668.5 827.3 665.8 831.6 664.0 834.5C662.2 837.4 659.5 841.7 658.0 844.0C656.5 846.3 653.8 850.6 652.0 853.5C650.2 856.4 647.5 860.7 646.0 863.0C644.5 865.3 641.8 869.6 640.0 872.5C638.2 875.4 635.5 879.7 634.0 882.0C632.5 884.3 629.8 888.6 628.0 891.5C626.2 894.4 623.5 898.7 622.0 901.0C620.5 903.3 617.8 907.6 616.0 910.5C614.2 913.4 611.5 917.7 610.0 920.0C608.5 922.3 605.8 926.7 603.8 929.8C601.9 932.8 598.8 937.6 597.0 940.5C595.2 943.4 592.5 947.6 591.0 949.8C589.6 952.1 588.5 954.3 588.6 954.8C588.8 955.7 592.8 955.7 696.3 955.7C768.0 955.6 805.9 955.4 810.2 955.0C813.8 954.7 819.7 954.3 823.2 954.0C829.5 953.6 833.5 953.1 841.5 952.0C850.1 950.8 851.9 950.5 854.2 950.0C855.6 949.8 857.9 949.3 859.4 949.0C860.8 948.7 863.1 948.3 864.4 948.0C866.7 947.6 869.4 946.9 873.0 946.0C874.0 945.8 875.6 945.3 876.8 945.1C881.8 943.9 905.1 936.3 909.2 934.4C915.5 931.7 923.7 927.9 925.0 927.2C925.7 926.8 928.5 925.3 931.2 923.9C937.0 921.0 942.5 917.7 945.7 915.4C946.9 914.5 949.3 912.7 951.0 911.5C952.7 910.3 955.1 908.4 956.2 907.3C957.2 906.3 958.9 904.8 959.9 904.1C962.3 902.3 965.4 899.2 967.2 896.8C968.0 895.8 969.3 894.2 970.2 893.3C976.5 886.9 990.2 863.9 994.2 853.1C994.6 852.1 995.4 850.0 996.0 848.5C996.9 846.2 999.1 840.3 1002.4 830.8C1003.7 827.0 1007.7 814.6 1008.0 813.0C1008.3 812.0 1008.7 810.4 1009.0 809.2C1009.2 808.1 1009.7 806.3 1010.0 805.1C1010.3 804.0 1010.7 802.0 1011.0 800.9C1011.3 799.7 1011.8 797.9 1012.1 796.8C1012.3 795.6 1012.8 793.6 1013.0 792.2C1013.3 790.9 1013.8 788.6 1014.0 787.2C1014.3 785.9 1014.8 783.5 1015.0 781.9C1015.3 780.3 1015.7 777.6 1016.0 775.9C1016.3 774.2 1016.8 771.0 1017.0 768.9C1017.3 766.7 1017.7 763.2 1018.0 761.0C1018.3 758.8 1018.7 755.1 1019.0 752.9C1019.3 750.6 1019.7 746.6 1020.0 743.9C1020.3 741.2 1020.7 736.7 1021.0 733.9C1021.8 725.5 1023.1 709.4 1024.0 697.0C1024.5 689.4 1024.9 686.5 1025.6 685.6C1026.4 684.6 1051.7 684.7 1052.5 685.7C1053.2 686.6 1053.1 688.2 1051.0 721.9C1050.7 726.2 1050.3 733.2 1050.0 737.5C1049.7 741.8 1049.3 748.8 1049.0 753.1C1048.7 757.5 1048.3 764.5 1048.0 768.9C1047.7 773.2 1047.3 780.2 1047.0 784.5C1046.7 788.8 1046.3 795.7 1046.0 800.0C1045.7 804.3 1045.3 811.2 1045.0 815.5C1044.7 819.8 1044.3 826.8 1044.0 831.1C1043.7 835.5 1043.3 842.5 1043.0 846.9C1042.7 851.2 1042.3 858.2 1042.0 862.5C1041.7 866.8 1041.3 873.7 1041.0 878.0C1040.7 882.3 1040.3 889.2 1040.0 893.5C1039.7 897.8 1039.3 904.8 1039.0 909.1C1038.7 913.5 1038.3 920.5 1038.0 924.9C1037.7 929.2 1037.3 936.2 1037.0 940.5C1036.7 944.8 1036.3 951.7 1036.0 956.0C1035.7 960.3 1035.3 967.2 1035.0 971.5C1034.7 975.8 1034.4 982.5 1034.2 986.5C1034.1 990.5 1033.7 994.0 1033.4 994.4C1032.7 995.2 482.3 995.3 481.0 994.5Z"/></svg>